<svg width="1440" height="1058" viewBox="0 0 1440 1058" fill="none" xmlns="http://www.w3.org/2000/svg">
<g clip-path="url(#clip0_43_11)">
<path d="M720 999.685C1049.81 999.685 1317.18 788.952 1317.18 529C1317.18 269.048 1049.81 58.3149 720 58.3149C390.188 58.3149 122.823 269.048 122.823 529C122.823 788.952 390.188 999.685 720 999.685Z" stroke="#FFEDC2" stroke-width="2"/>
<path d="M720 941.37C1008.88 941.37 1243.06 756.746 1243.06 529C1243.06 301.254 1008.88 116.63 720 116.63C431.123 116.63 196.941 301.254 196.941 529C196.941 756.746 431.123 941.37 720 941.37Z" stroke="#FFEDC2" stroke-width="2"/>
<path d="M720 882.13C967.358 882.13 1167.88 724.028 1167.88 529C1167.88 333.972 967.358 175.871 720 175.871C472.641 175.871 272.117 333.972 272.117 529C272.117 724.028 472.641 882.13 720 882.13Z" stroke="#FFEDC2" stroke-width="2"/>
<path d="M720 823.815C926.425 823.815 1093.76 691.822 1093.76 529C1093.76 366.178 926.425 234.186 720 234.186C513.576 234.186 346.235 366.178 346.235 529C346.235 691.822 513.576 823.815 720 823.815Z" stroke="#FFEDC2" stroke-width="2"/>
<path d="M720 764.574C885.49 764.574 1019.65 659.104 1019.65 529C1019.65 398.896 885.49 293.426 720 293.426C554.509 293.426 420.353 398.896 420.353 529C420.353 659.104 554.509 764.574 720 764.574Z" stroke="#FFEDC2" stroke-width="2"/>
<path d="M720 706.259C843.972 706.259 944.47 626.897 944.47 529C944.47 431.103 843.972 351.741 720 351.741C596.028 351.741 495.529 431.103 495.529 529C495.529 626.897 596.028 706.259 720 706.259Z" stroke="#FFEDC2" stroke-width="2"/>
<path d="M720 647.018C803.038 647.018 870.353 594.18 870.353 529C870.353 463.82 803.038 410.982 720 410.982C636.963 410.982 569.647 463.82 569.647 529C569.647 594.18 636.963 647.018 720 647.018Z" stroke="#FFEDC2" stroke-width="2"/>
<path d="M720 588.703C761.519 588.703 795.176 561.973 795.176 529C795.176 496.027 761.519 469.297 720 469.297C678.481 469.297 644.823 496.027 644.823 529C644.823 561.973 678.481 588.703 720 588.703Z" stroke="#FFEDC2" stroke-width="2"/>
<path fill-rule="evenodd" clip-rule="evenodd" d="M1467 937.791L1467 1058L-46 1058L-46 926.965C-24.9336 934.238 -0.0216036 946.69 29.2823 966.15C182.085 1067.63 422.935 988.465 614.729 906.51C749.46 848.929 879.01 903.156 1021.3 962.696C1081.54 987.9 1144.07 1014.07 1210.24 1033.09C1313.39 1062.75 1401.96 1008.85 1467 937.791Z" fill="#FFF7E0"/>
</g>
<defs>
<clipPath id="clip0_43_11">
<path d="M0 40C0 17.9086 17.9086 0 40 0H1400C1422.09 0 1440 17.9086 1440 40V1058H0V40Z" fill="white"/>
</clipPath>
</defs>
</svg>
