<svg width="1428" height="527" viewBox="0 0 1428 527" fill="none" xmlns="http://www.w3.org/2000/svg">
<g clip-path="url(#clip0_43_426)">
<path d="M720 526.487C1116.87 526.487 1438.6 408.744 1438.6 263.5C1438.6 118.256 1116.87 0.512695 720 0.512695C323.128 0.512695 1.40039 118.256 1.40039 263.5C1.40039 408.744 323.128 526.487 720 526.487Z" stroke="#FFF4DB" stroke-width="2"/>
<path d="M720 493.678C1067.36 493.678 1348.95 390.624 1348.95 263.5C1348.95 136.376 1067.36 33.3218 720 33.3218C372.641 33.3218 91.0508 136.376 91.0508 263.5C91.0508 390.624 372.641 493.678 720 493.678Z" stroke="#FFF4DB" stroke-width="2"/>
<path d="M720 460.869C1017.85 460.869 1259.3 372.504 1259.3 263.5C1259.3 154.496 1017.85 66.1313 720 66.1313C422.153 66.1313 180.7 154.496 180.7 263.5C180.7 372.504 422.153 460.869 720 460.869Z" stroke="#FFF4DB" stroke-width="2"/>
<path d="M720 428.059C968.335 428.059 1169.65 354.383 1169.65 263.5C1169.65 172.616 968.335 98.9404 720 98.9404C471.666 98.9404 270.351 172.616 270.351 263.5C270.351 354.383 471.666 428.059 720 428.059Z" stroke="#FFF4DB" stroke-width="2"/>
<path d="M720 395.25C918.823 395.25 1080 336.264 1080 263.5C1080 190.736 918.823 131.75 720 131.75C521.177 131.75 360 190.736 360 263.5C360 336.264 521.177 395.25 720 395.25Z" stroke="#FFF4DB" stroke-width="2"/>
<path d="M720 362.441C869.31 362.441 990.35 318.144 990.35 263.5C990.35 208.857 869.31 164.56 720 164.56C570.689 164.56 449.649 208.857 449.649 263.5C449.649 318.144 570.689 362.441 720 362.441Z" stroke="#FFF4DB" stroke-width="2"/>
<path d="M720 329.631C819.798 329.631 900.701 300.023 900.701 263.5C900.701 226.977 819.798 197.369 720 197.369C620.202 197.369 539.3 226.977 539.3 263.5C539.3 300.023 620.202 329.631 720 329.631Z" stroke="#FFF4DB" stroke-width="2"/>
<path d="M720 296.822C770.286 296.822 811.05 281.903 811.05 263.5C811.05 245.097 770.286 230.178 720 230.178C669.714 230.178 628.949 245.097 628.949 263.5C628.949 281.903 669.714 296.822 720 296.822Z" stroke="#FFF4DB" stroke-width="2"/>
</g>
<defs>
<clipPath id="clip0_43_426">
<rect width="1440" height="527" fill="white"/>
</clipPath>
</defs>
</svg>
