<svg width="1360" height="1143" viewBox="0 0 1360 1143" fill="none" xmlns="http://www.w3.org/2000/svg">
<g clip-path="url(#clip0_43_11)">
<path d="M680 1141.89C1054.82 1141.89 1358.68 886.517 1358.68 571.5C1358.68 256.483 1054.82 1.11182 680 1.11182C305.177 1.11182 1.32324 256.483 1.32324 571.5C1.32324 886.517 305.177 1141.89 680 1141.89Z" stroke="#FFEDC2" stroke-width="2"/>
<path d="M680 1070.73C1008.06 1070.73 1274.01 847.216 1274.01 571.5C1274.01 295.784 1008.06 72.2715 680 72.2715C351.939 72.2715 85.9922 295.784 85.9922 571.5C85.9922 847.216 351.939 1070.73 680 1070.73Z" stroke="#FFEDC2" stroke-width="2"/>
<path d="M680 999.569C961.299 999.569 1189.34 807.916 1189.34 571.5C1189.34 335.084 961.299 143.431 680 143.431C398.7 143.431 170.661 335.084 170.661 571.5C170.661 807.916 398.7 999.569 680 999.569Z" stroke="#FFEDC2" stroke-width="2"/>
<path d="M680 928.41C914.539 928.41 1104.67 768.616 1104.67 571.5C1104.67 374.384 914.539 214.591 680 214.591C445.462 214.591 255.331 374.384 255.331 571.5C255.331 768.616 445.462 928.41 680 928.41Z" stroke="#FFEDC2" stroke-width="2"/>
<path d="M680 857.25C867.777 857.25 1020 729.315 1020 571.5C1020 413.685 867.777 285.75 680 285.75C492.223 285.75 340 413.685 340 571.5C340 729.315 492.223 857.25 680 857.25Z" stroke="#FFEDC2" stroke-width="2"/>
<path d="M680 786.091C821.015 786.091 935.33 690.015 935.33 571.5C935.33 452.985 821.015 356.91 680 356.91C538.984 356.91 424.669 452.985 424.669 571.5C424.669 690.015 538.984 786.091 680 786.091Z" stroke="#FFEDC2" stroke-width="2"/>
<path d="M680 714.931C774.254 714.931 850.662 650.715 850.662 571.5C850.662 492.285 774.254 428.069 680 428.069C585.747 428.069 509.339 492.285 509.339 571.5C509.339 650.715 585.747 714.931 680 714.931Z" stroke="#FFEDC2" stroke-width="2"/>
<path d="M680 643.771C727.492 643.771 765.992 611.414 765.992 571.5C765.992 531.586 727.492 499.229 680 499.229C632.508 499.229 594.008 531.586 594.008 571.5C594.008 611.414 632.508 643.771 680 643.771Z" stroke="#FFEDC2" stroke-width="2"/>
</g>
<defs>
<clipPath id="clip0_43_11">
<path d="M0 40C0 17.9086 17.9086 0 40 0H1320C1342.09 0 1360 17.9086 1360 40V1143H0V40Z" fill="white"/>
</clipPath>
</defs>
</svg>
