<svg width="1360" height="653" viewBox="0 0 1360 653" fill="none" xmlns="http://www.w3.org/2000/svg">
<rect width="1360" height="653" fill="url(#paint0_linear_43_363)"/>
<g clip-path="url(#clip0_43_363)">
<path d="M619.07 119.16L652.57 66H677.42L656.04 110.78C661.24 112.7 665.67 116.27 669.34 121.47C672.979 126.618 674.898 132.786 674.82 139.09C674.82 147.56 671.74 154.89 665.58 161.04C662.771 163.936 659.398 166.226 655.669 167.767C651.94 169.308 647.934 170.068 643.9 170C635.43 170 628.1 167.02 621.95 161.04C619.069 158.166 616.793 154.743 615.256 150.975C613.719 147.207 612.952 143.169 613 139.1C613 132.17 615.02 125.52 619.07 119.17V119.16ZM688.97 119.16L722.5 66H747.34L725.97 110.78C731.17 112.7 735.6 116.27 739.25 121.47C742.897 126.616 744.822 132.783 744.75 139.09C744.75 147.56 741.66 154.89 735.5 161.04C732.692 163.935 729.321 166.224 725.593 167.765C721.866 169.306 717.863 170.067 713.83 170C705.36 170 698.04 167.02 691.88 161.04C688.994 158.168 686.712 154.747 685.17 150.979C683.627 147.211 682.856 143.171 682.9 139.1C682.9 132.17 684.92 125.52 688.97 119.17V119.16Z" fill="#FFF7E0"/>
</g>
<defs>
<linearGradient id="paint0_linear_43_363" x1="680" y1="0" x2="680" y2="653" gradientUnits="userSpaceOnUse">
<stop stop-color="#FFFAEC"/>
<stop offset="1" stop-color="white" stop-opacity="0"/>
</linearGradient>
<clipPath id="clip0_43_363">
<rect width="135" height="104" fill="white" transform="translate(613 66)"/>
</clipPath>
</defs>
</svg>
