<svg width="24" height="24" viewBox="0 0 24 24" fill="none" xmlns="http://www.w3.org/2000/svg">
<path d="M10.4065 9.21599C10.2709 9.15058 10.1215 9.11904 9.97097 9.12405C9.82049 9.12907 9.67347 9.1705 9.54252 9.24479C9.41589 9.31564 9.31018 9.41861 9.23602 9.54333C9.16187 9.66804 9.12189 9.8101 9.12012 9.95519V14.0352C9.12012 14.3328 9.28332 14.6112 9.54252 14.7552C9.81132 14.9088 10.1281 14.9184 10.4065 14.7936L14.2369 12.9792C14.4278 12.8951 14.5902 12.7573 14.7041 12.5826C14.8181 12.4079 14.8788 12.2038 14.8788 11.9952C14.8788 11.7866 14.8181 11.5825 14.7041 11.4078C14.5902 11.2331 14.4278 11.0953 14.2369 11.0112L10.4065 9.21599Z" stroke="black" stroke-width="0.4" stroke-linecap="round" stroke-linejoin="round"/>
<path d="M18.451 3.36011H5.5486C5.13505 3.36011 4.7998 3.69536 4.7998 4.10891V19.8913C4.7998 20.3049 5.13505 20.6401 5.5486 20.6401H18.451C18.8646 20.6401 19.1998 20.3049 19.1998 19.8913V4.10891C19.1998 3.69536 18.8646 3.36011 18.451 3.36011Z" stroke="black" stroke-width="0.4" stroke-linecap="round" stroke-linejoin="round"/>
<path d="M21.6674 5.52002C21.9696 5.52506 22.2577 5.64865 22.4696 5.86415C22.6815 6.07964 22.8002 6.36979 22.8002 6.67202V17.328C22.8002 17.6302 22.6815 17.9204 22.4696 18.1359C22.2577 18.3514 21.9696 18.475 21.6674 18.48M2.333 5.52002C2.03081 5.52506 1.7427 5.64865 1.53079 5.86415C1.31889 6.07964 1.20015 6.36979 1.2002 6.67202V17.328C1.20015 17.6302 1.31889 17.9204 1.53079 18.1359C1.7427 18.3514 2.03081 18.475 2.333 18.48V5.52002Z" stroke="black" stroke-width="0.4" stroke-linecap="round" stroke-linejoin="round"/>
</svg>
