<svg width="415" height="52" viewBox="0 0 415 52" fill="none" xmlns="http://www.w3.org/2000/svg">
<g clip-path="url(#clip0_43_403)">
<path fill-rule="evenodd" clip-rule="evenodd" d="M204.228 0.374173C204.114 0.561373 202.062 0.935773 199.668 1.20617C195.86 1.62217 190.695 3.28617 188.324 4.86697C187.913 5.13737 187.024 5.47017 186.328 5.61577C184.094 6.05257 182.11 7.09257 181.768 8.00777C181.54 8.59017 181.186 8.52777 180.685 7.82057C180.263 7.23817 179.818 7.11337 179.659 7.55017C179.419 8.23657 174.699 9.85897 173.799 9.56777C173.616 9.52617 173.228 9.98377 172.932 10.6078C172.59 11.2942 171.655 11.6062 170.424 11.3982C169.364 11.1902 168.337 11.4606 168.166 11.939C167.984 12.4382 167.311 12.8334 166.65 12.8334C166 12.8334 165.328 13.2286 165.157 13.707C164.985 14.1854 164.666 14.3934 164.472 14.1646C164.256 13.9566 162.306 14.539 160.14 15.4542C157.974 16.3902 155.534 17.3262 154.702 17.5966C153.881 17.8254 151.737 18.6158 149.959 19.3022C148.18 20.0094 145.934 20.7998 144.977 21.0702C144.019 21.3198 141.442 22.1934 139.253 22.9838C136.939 23.8366 133.211 24.4398 130.406 24.3982C127.613 24.3774 125.458 24.7102 125.344 25.2094C125.207 25.7294 124.968 25.6878 124.717 25.0638C124.455 24.4398 122.779 24.0862 120.316 24.107C116.804 24.1278 109.485 22.2766 102.633 19.5934C101.402 19.115 99.8966 18.595 99.2924 18.4286C95.7808 17.4302 89.8408 15.0174 89.362 14.3934C88.5754 13.7656 87.7337 13.3993 86.8766 13.3118C85.8163 13.1454 83.593 12.6046 81.9513 12.147C78.1433 11.0654 68.8742 10.9406 68.498 11.9806C68.3498 12.3966 67.8595 12.5214 67.4035 12.2302C66.7992 11.8142 66.708 12.0014 67.0158 12.8958C67.3579 13.8734 67.3009 13.915 66.7308 13.1246C66.1836 12.3966 64.918 12.459 61.5319 13.395C59.6818 13.8392 57.8498 14.5062 56.048 15.3918C55.5007 15.8078 54.0414 16.3694 52.8101 16.6606C49.1351 17.7962 45.5248 19.5438 42.0246 21.8814C41.1582 22.547 40.2119 23.067 39.9268 23.067C39.6418 23.067 37.6922 24.419 35.5944 26.0622C33.4738 27.7054 31.376 29.0366 30.8858 29.0366C30.4183 29.0366 29.4492 29.8062 28.7538 30.7422C28.0697 31.6782 27.169 32.4478 26.7814 32.4478C26.3937 32.4478 25.9035 32.739 25.6983 33.0926C25.493 33.4462 25.1738 33.7582 24.9914 33.779C23.1672 34.0078 20.6362 36.9614 21.115 38.2926C21.2632 38.7086 20.887 38.875 20.2827 38.667C19.0286 38.251 17.8087 39.0414 14.1489 42.619C12.8016 44.0121 11.3034 44.8499 9.75953 45.0734C8.73343 45.0734 7.52491 45.6558 7.06887 46.363C6.15678 47.7566 2.77065 48.5886 2.17779 47.5694C1.98398 47.2366 1.41392 46.9454 0.912273 46.9454C-0.284842 46.9454 -0.307645 50.0654 0.866668 51.0638C2.46282 52.4366 6.84084 52.2494 8.17477 50.7726C8.58547 50.2971 9.04469 49.9782 9.52475 49.8352C10.0048 49.6922 10.4958 49.7281 10.968 49.9406C12.4274 50.5022 16.0757 47.9022 26.5647 38.7918C27.2023 38.1934 27.8869 37.7794 28.5941 37.5646C28.9362 37.5646 30.3613 36.6078 31.7864 35.443C32.7687 34.5455 33.7956 33.8212 34.8533 33.2798C35.3322 33.2798 36.3355 32.6142 41.238 28.9534C42.6859 27.8718 44.2593 26.8942 44.7267 26.7902C46.4369 26.3742 49.1161 24.9598 51.0657 23.4414C52.1602 22.5886 53.3915 21.819 53.802 21.7358C54.2124 21.6526 54.6685 21.5278 54.8053 21.403C54.9421 21.3198 56.0594 21.091 57.2907 20.9454C58.522 20.779 60.768 20.051 62.273 19.323C67.2667 16.9102 80.7542 16.2862 83.7527 18.3454C84.1859 18.6366 84.7446 18.803 84.9954 18.7198C85.2348 18.6158 85.7821 18.7614 86.1925 19.0318C86.6029 19.323 87.7202 19.7182 88.6779 19.947C91.7562 20.6542 93.8882 21.507 94.8573 22.4014C95.3818 22.8798 96.8297 23.4414 98.0952 23.6702C99.3494 23.8782 100.649 24.4606 100.98 24.9182C101.299 25.355 101.858 25.6254 102.222 25.5006C102.587 25.355 103.887 25.7086 105.118 26.2286C111.685 29.1406 124.705 31.1998 129.163 30.0558C130.873 29.6398 132.025 29.6398 132.025 30.0974C132.025 30.5342 132.732 30.6174 133.644 30.2638C134.533 29.9102 135.605 29.6606 136.015 29.7022C136.768 29.7854 142.856 28.0798 147.964 26.3742C157.281 23.1527 166.537 19.358 175.714 14.9966C176.911 14.5806 177.242 14.0606 177.036 12.979C176.831 11.8558 176.877 11.7934 177.264 12.7294C177.618 13.5822 178.279 13.7486 179.682 13.291L182.851 12.2718C183.535 12.0638 185.325 11.3566 186.841 10.7118C188.335 10.0462 191.926 8.88137 194.799 8.11177C197.684 7.34217 200.375 6.48937 200.785 6.23977C201.195 5.96937 202.871 5.57417 204.513 5.36617C206.166 5.15817 207.683 4.53417 207.888 3.99337C208.116 3.36937 208.389 3.30697 208.629 3.86857C209.279 5.32457 210.248 5.22057 210.282 3.66057C210.316 2.47497 210.396 2.41257 210.613 3.45257C211.035 5.34537 211.833 5.99017 212.756 5.11657C213.419 4.69767 214.122 4.53497 214.82 4.63882C215.519 4.74267 216.198 5.1108 216.815 5.71977C217.864 7.07177 220.817 9.19337 222.584 9.81737C223.473 10.1502 224.203 10.7534 224.203 11.1902C224.203 11.6062 224.875 11.9806 225.685 11.9806C226.517 11.9806 227.19 12.355 227.19 12.8126C227.19 13.9566 232.024 16.2446 236.311 17.1182C238.283 17.5342 240.791 18.1582 241.897 18.5118C244.77 19.4894 252.021 19.2814 252.649 18.2206C253.025 17.5758 253.857 17.659 255.499 18.5118C256.924 19.2398 257.893 19.3854 257.984 18.8654C258.087 18.3454 258.589 18.3246 259.318 18.803C260.159 19.2548 261.054 19.2548 261.895 18.803C262.682 18.3662 266.683 17.4302 270.788 16.7022C274.892 15.9742 278.814 15.1838 279.498 14.9134C280.182 14.643 281.311 14.3102 281.995 14.1646C282.679 14.019 284.355 13.603 285.735 13.2078C287.103 12.8126 288.528 12.5838 288.893 12.7294C289.269 12.8542 289.942 12.6878 290.386 12.3758C290.842 12.043 292.963 11.6686 295.095 11.5438C297.238 11.3774 299.268 10.8782 299.598 10.379C299.952 9.87977 300.944 9.75497 301.935 10.1294C302.893 10.4622 304.672 10.5454 305.914 10.2958C307.146 10.0462 309.095 10.0878 310.247 10.3374C311.398 10.6286 312.219 10.5038 312.071 10.1086C311.934 9.69257 312.721 9.48457 313.838 9.60937C314.956 9.73417 315.879 10.1086 315.879 10.4414C315.879 10.7534 317.43 11.2734 319.334 11.6062C321.557 11.9806 322.879 12.6046 323.05 13.3534C323.199 14.019 323.666 14.539 324.099 14.539C324.76 14.539 327.474 17.2846 328.329 18.8238C329.948 21.7358 340.562 29.5774 343.835 30.3054L348.258 31.283C349.216 31.491 349.774 31.3662 349.512 30.9918C349.227 30.6174 349.011 29.5774 349.011 28.6414C349.011 27.3102 348.634 26.9774 347.107 26.8734C345.944 26.7902 345.465 27.019 345.864 27.4558C346.32 27.955 346.343 28.163 345.921 28.1838C345.59 28.1838 345.191 27.8094 345.009 27.331C344.564 26.083 341.474 24.003 339.57 23.6702C338.658 23.5038 336.834 22.1518 335.512 20.6334C334.408 19.3201 333.226 18.2386 331.989 17.4094C331.385 17.1598 330.769 16.411 330.621 15.7454C330.539 15.4091 330.409 15.1194 330.244 14.9071C330.08 14.6947 329.887 14.5675 329.686 14.539C329.321 14.539 328.58 13.8526 328.055 12.9998C327.098 11.5022 324.521 9.50537 320.61 7.25897C318.33 5.94857 302.426 5.03337 298.709 6.01097C297.409 6.34377 296.144 7.15497 295.904 7.79977C295.574 8.67337 295.46 8.71497 295.448 7.90377C295.448 7.07177 294.354 6.94697 290.591 7.38377C287.924 7.69577 285.347 8.29897 284.857 8.71497C284.378 9.13097 282.588 9.67177 280.866 9.90057C276.944 10.4414 274.516 11.0238 274.014 11.5646C273.786 11.7726 271.745 12.1886 269.454 12.4174C267.174 12.667 263.616 13.2494 261.564 13.6862C259.512 14.1646 257.232 14.331 256.491 14.1022C255.75 13.8734 255.043 13.9774 254.917 14.3518C254.781 14.7054 253.367 14.9134 251.771 14.7886L242.878 14.2478C237.223 13.915 235.923 13.603 234.167 12.043C233.757 11.6894 232.184 10.899 230.679 10.3166C229.023 9.62251 227.416 8.58259 225.89 7.21737C224.75 6.11497 223.724 5.40777 223.576 5.65737C223.428 5.90697 222.47 5.51177 221.455 4.78377C220.511 4.08205 219.517 3.63365 218.502 3.45257C217.909 3.45257 217.18 3.03657 216.872 2.51657C216.139 1.76336 215.318 1.33582 214.478 1.26857C213.754 1.22198 213.038 0.969332 212.357 0.519773C212.22 0.290973 211.696 0.478173 211.183 0.935773C210.521 1.55977 210.248 1.51817 210.248 0.810973C210.248 0.0621729 210.077 0.0621729 209.541 0.810973C209.062 1.49737 208.743 1.53897 208.515 0.935773C208.218 0.103773 204.684 -0.374627 204.228 0.374173ZM174.209 13.187C174.209 13.8526 173.901 14.1854 173.502 13.915C172.932 13.5198 172.909 13.3118 173.468 12.7294C173.833 12.3134 174.152 12.0014 174.163 12.0014C174.186 12.0014 174.209 12.5214 174.209 13.187ZM171.883 13.6862C171.883 14.1438 171.792 14.5182 171.655 14.5182C171.541 14.5182 171.313 14.1438 171.142 13.6862C170.971 13.2078 171.062 12.8334 171.359 12.8334C171.644 12.8334 171.883 13.2078 171.883 13.6654V13.6862ZM169.637 14.5182C169.478 15.0174 169.067 15.3918 168.736 15.371C168.394 15.371 168.451 15.0382 168.896 14.539C169.854 13.4782 170.025 13.4782 169.649 14.539L169.637 14.5182ZM404.067 16.0366C403.109 16.2446 402.037 16.7854 401.695 17.2846C401.273 17.867 400.863 17.867 400.441 17.3054C400.099 16.827 399.392 16.7438 398.833 17.139C398.286 17.5134 397.009 17.867 395.995 17.8878C394.98 17.9294 394.011 18.3662 393.828 18.8654C393.646 19.3646 393.19 19.5726 392.814 19.323C392.05 18.8238 386.144 20.4046 385.38 21.3198C384.43 21.8345 383.441 22.08 382.45 22.0478C381.116 22.131 379.759 22.5678 379.44 23.0046C379.121 23.4622 378.425 23.7118 377.89 23.5662C377.053 23.4959 376.217 23.6858 375.416 24.1278C373.705 25.043 373.238 25.1262 364.448 26.3742C360.891 26.8734 356.513 27.1854 354.734 27.0606C351.04 26.8318 349.774 27.5182 350.014 29.6814L350.219 31.699C350.265 32.3646 363.102 32.011 366.694 31.2414C373.204 29.827 376.464 28.7454 377.445 27.643C378.038 26.9774 379.543 26.5406 380.934 26.6238C382.279 26.7278 384.502 26.3534 385.87 25.8126C388.379 24.835 392.426 23.4622 396.587 22.1934C397.819 21.819 399.78 21.091 400.954 20.571C402.128 20.0718 405.628 19.531 408.764 19.427C414.396 19.219 415.673 18.7198 414.715 17.0766C414.179 16.1614 406.962 15.475 404.067 16.0366Z" fill="#AE99FF"/>
</g>
<defs>
<clipPath id="clip0_43_403">
<rect width="415" height="52" fill="white"/>
</clipPath>
</defs>
</svg>
