<svg width="135" height="104" viewBox="0 0 135 104" fill="none" xmlns="http://www.w3.org/2000/svg">
<g clip-path="url(#clip0_43_367)">
<path d="M6.0702 53.16L39.5702 0H64.4202L43.0402 44.78C48.2402 46.7 52.6702 50.27 56.3402 55.47C59.9795 60.6184 61.8976 66.7857 61.8202 73.09C61.8202 81.56 58.7402 88.89 52.5802 95.04C49.771 97.9363 46.3977 100.226 42.6688 101.767C38.9398 103.308 34.9345 104.068 30.9002 104C22.4302 104 15.1002 101.02 8.9502 95.04C6.06924 92.1657 3.79306 88.7435 2.25592 84.9753C0.718769 81.2072 -0.0482147 77.1693 0.000204428 73.1C0.000204428 66.17 2.0202 59.52 6.0702 53.17V53.16ZM75.9702 53.16L109.5 0H134.34L112.97 44.78C118.17 46.7 122.6 50.27 126.25 55.47C129.897 60.6157 131.822 66.7834 131.75 73.09C131.75 81.56 128.66 88.89 122.5 95.04C119.692 97.935 116.321 100.224 112.593 101.765C108.866 103.306 104.863 104.067 100.83 104C92.3602 104 85.0402 101.02 78.8802 95.04C75.9938 92.1681 73.7121 88.7471 72.1698 84.9788C70.6274 81.2105 69.8557 77.1715 69.9002 73.1C69.9002 66.17 71.9202 59.52 75.9702 53.17V53.16Z" fill="#FFF7E0"/>
</g>
<defs>
<clipPath id="clip0_43_367">
<rect width="135" height="104" fill="white"/>
</clipPath>
</defs>
</svg>
