<svg width="176" height="177" viewBox="0 0 176 177" fill="none" xmlns="http://www.w3.org/2000/svg">
<g clip-path="url(#clip0_43_436)">
<path d="M88 176.391C136.601 176.391 176 136.992 176 88.3906C176 39.7896 136.601 0.390625 88 0.390625C39.3989 0.390625 0 39.7896 0 88.3906C0 136.992 39.3989 176.391 88 176.391Z" fill="#FFFAE5"/>
<path d="M88.0002 158.454C126.695 158.454 158.064 127.085 158.064 88.3904C158.064 49.6952 126.695 18.3267 88.0002 18.3267C49.3051 18.3267 17.9365 49.6952 17.9365 88.3904C17.9365 127.085 49.3051 158.454 88.0002 158.454Z" fill="#FEF2CD"/>
<path d="M140.128 88.3901C140.128 59.6009 116.79 36.2627 88.0004 36.2627C59.2113 36.2627 35.873 59.6009 35.873 88.3901C35.873 117.179 59.2113 140.517 88.0004 140.517C116.79 140.517 140.128 117.179 140.128 88.3901Z" fill="#FAC734"/>
<path d="M87.8774 136.627C114.586 136.627 136.238 114.975 136.238 88.266C136.238 61.5571 114.586 39.9053 87.8774 39.9053C61.1684 39.9053 39.5166 61.5571 39.5166 88.266C39.5166 114.975 61.1684 136.627 87.8774 136.627Z" fill="#FFF5D0" stroke="white" stroke-width="2.17"/>
<path d="M108.941 107.602C106.89 107.188 104.928 106.717 103.291 106.392L100.545 105.786L100.87 102.984C100.87 102.849 100.915 102.715 100.915 102.569C100.924 101.978 100.814 101.39 100.59 100.843L99.9393 99.3517L100.825 97.9617C101.341 97.1209 101.565 96.1792 101.565 95.1143C101.565 93.9933 101.24 93.018 100.634 92.1772L99.5694 90.7199L100.264 89.0496C100.545 88.3994 100.679 87.7043 100.679 86.9981C100.679 86.0228 100.679 83.0745 96.0718 81.3145C94.6542 80.8559 93.1781 80.603 91.6886 80.5634L86.7001 80.2384L89.0767 75.9C90.9824 72.4473 92.0586 69.3308 92.0586 67.1337C92.0586 65.127 91.4084 63.3558 89.9174 62.7617C84.7383 60.5196 81.0614 64.006 78.4382 68.2995C76.1867 71.9738 74.0886 75.7399 72.1493 79.5882C68.7414 86.7627 63.708 91.9418 63.708 99.1163C63.708 105.652 68.0912 110.775 76.1065 113.488C85.949 116.795 100.634 117.68 107.024 117.68C111.598 117.68 114.109 115.909 114.109 112.636C114.109 109.239 110.892 108.028 108.941 107.614V107.602Z" fill="#FFD338"/>
<path d="M106.889 104.724L97.002 102.572C97.7867 102.011 98.6275 100.845 98.6275 99.3992C98.6275 97.7177 97.7419 96.7424 97.0468 96.2379C97.7339 95.7647 98.2938 95.1295 98.677 94.3885C99.0602 93.6475 99.255 92.8234 99.244 91.9893C99.244 89.523 97.5625 88.2563 96.6657 87.6509C97.1878 87.1684 97.6062 86.5846 97.8953 85.9351C98.1844 85.2856 98.3382 84.584 98.3472 83.8731C98.3472 80.6558 95.881 79.2096 93.8744 78.4249C92.2489 77.8196 89.1661 77.5842 86.4644 77.5842C82.0364 77.5842 78.0231 77.9093 76.1062 77.9093C73.8305 77.9093 74.1108 76.7434 74.9403 75.6672C75.456 75.0619 81.9355 66.5309 83.1574 64.9951C83.987 63.8741 84.9735 62.7979 85.7133 63.2239C86.5093 63.6387 86.1842 65.6005 85.3434 67.7416C84.0879 71.1047 82.3167 73.2458 81.8907 73.9969L84.8726 75.813C86.0384 74.3556 89.8163 68.0779 89.8163 64.0086C89.8163 62.1926 89.1212 60.6568 87.7648 59.816C87.0523 59.4252 86.2466 59.2363 85.4346 59.2699C84.6226 59.3035 83.8352 59.5582 83.1574 60.0066C82.0238 60.6905 81.0247 61.5757 80.2091 62.6186C77.8774 65.6005 72.9449 71.8446 71.1289 74.1763C68.5057 77.5842 69.7276 81.7768 75.2767 81.7768C77.2272 81.7768 83.617 81.3172 86.0945 81.3172C88.9307 81.3172 90.3319 81.4517 91.3072 81.5974C93.1793 81.8777 94.2443 82.7184 94.2443 83.8395C94.2443 84.6242 93.8744 85.1847 93.2242 85.6443C92.574 86.1151 91.9686 86.8102 91.9686 87.7967C91.9686 88.9625 93.0336 89.4221 93.7398 89.893C94.6703 90.4983 95.2308 90.9131 95.2308 91.8996C95.2308 92.7852 94.5806 93.3009 93.8295 93.8502C93.2242 94.321 92.4282 94.8367 92.4282 95.9016C92.4282 96.8881 93.1345 97.3589 93.5941 97.7289C94.0649 98.0988 94.5806 98.5136 94.5806 99.3095C94.5806 100.094 94.1995 100.475 93.269 101.036C92.5291 101.451 91.453 102.247 91.453 103.368C91.453 104.623 92.3386 105.184 93.4147 105.464C95.9707 106.069 103.616 107.706 106.228 108.311C107.069 108.502 107.91 108.771 107.91 109.477C107.91 110.172 106.788 110.497 105.208 110.497C99.7149 110.497 84.413 109.376 75.4112 106.26C69.3016 104.208 65.9498 100.431 65.9498 95.9016C65.9498 91.9893 68.5617 88.5029 71.3979 86.4851L68.842 83.8731C64.7391 86.7205 61.9365 91.2494 61.9365 96.0025C61.9365 101.496 65.1987 107.101 74.2005 110.127C83.7628 113.345 98.2575 114.32 105.028 114.32C109.636 114.32 111.867 112.414 111.867 109.522C111.833 106.776 109.591 105.285 106.889 104.724Z" fill="#222222"/>
</g>
<defs>
<clipPath id="clip0_43_436">
<rect width="176" height="176" fill="white" transform="translate(0 0.390625)"/>
</clipPath>
</defs>
</svg>
