<svg width="146" height="39" viewBox="0 0 146 39" fill="none" xmlns="http://www.w3.org/2000/svg">
<g clip-path="url(#clip0_43_38)">
<path d="M43.9464 27.5317C42.3041 27.5317 40.4793 26.9539 39.0195 25.7982L40.2056 24.0039C41.4525 24.9466 42.8211 25.4332 44.0072 25.4332C45.1629 25.4332 45.8015 24.9466 45.8015 24.1863V24.1559C45.8015 23.2435 44.585 22.9394 43.2165 22.544C41.5134 22.0574 39.5974 21.358 39.5974 19.1378V19.1074C39.5974 16.9177 41.4221 15.5796 43.7335 15.5796C45.1933 15.5796 46.7747 16.0966 47.9912 16.8873L46.9268 18.7729C45.8015 18.1038 44.6154 17.678 43.6422 17.678C42.6082 17.678 42.0304 18.1646 42.0304 18.8337V18.8641C42.0304 19.6853 43.2773 20.0502 44.6459 20.476C46.349 20.993 48.2345 21.7837 48.2345 23.8518V23.8822C48.265 26.3152 46.349 27.5317 43.9464 27.5317Z" fill="#222222"/>
<path d="M58.0277 15.7009H60.6736V27.2881H58.0277V25.4938C57.2674 26.5886 56.2029 27.5314 54.4086 27.5314C51.7931 27.5314 50.2725 25.7675 50.2725 23.0608V15.7009H52.9184V22.3005C52.9184 24.0948 53.8307 25.1288 55.4122 25.1288C56.9632 25.1288 58.0277 24.0644 58.0277 22.2396V15.7009Z" fill="#222222"/>
<path d="M70.0408 27.5621C68.1248 27.5621 66.9083 26.5889 66.1176 25.5245V30.8467H63.4717V15.7012H66.1176V17.6476C66.9691 16.4311 68.1856 15.4883 70.0408 15.4883C72.7779 15.4883 75.4542 17.6476 75.4542 21.5404C75.4542 25.3724 72.8083 27.5621 70.0408 27.5621ZM69.4325 17.7693C67.6382 17.7693 66.0567 19.2291 66.0567 21.51C66.0567 23.791 67.6382 25.2508 69.4325 25.2508C71.2573 25.2508 72.7475 23.8214 72.7475 21.51C72.7475 19.2291 71.2269 17.7693 69.4325 17.7693Z" fill="#222222"/>
<path d="M82.9963 25.4029C84.304 25.4029 85.2164 24.9163 86.1288 24.0343L87.6798 25.4029C86.585 26.7106 85.0644 27.5622 82.9355 27.5622C79.5901 27.5622 76.9746 25.1292 76.9746 21.5101C76.9746 18.1647 79.3164 15.458 82.6314 15.458C86.3113 15.458 88.1969 18.3472 88.1969 21.723C88.1969 21.9663 88.1664 22.1791 88.1664 22.4529H79.6509C79.955 24.3384 81.2628 25.4029 82.9963 25.4029ZM85.5814 20.6889C85.3989 18.9858 84.3953 17.6477 82.6314 17.6477C81.0195 17.6477 79.8638 18.8946 79.6205 20.6889H85.5814Z" fill="#222222"/>
<path d="M93.0023 27.3188H90.3564V15.7012H93.0023V18.3167C93.7322 16.5832 95.0704 15.3971 97.108 15.4883V18.2863H96.956C94.6142 18.2863 93.0023 19.8069 93.0023 22.8786V27.3188Z" fill="#222222"/>
<path d="M105.623 27.5621C103.707 27.5621 102.49 26.5889 101.7 25.5245V30.8467H99.0537V15.7012H101.7V17.6476C102.551 16.4311 103.768 15.4883 105.623 15.4883C108.36 15.4883 111.036 17.6476 111.036 21.5404C111.036 25.3724 108.39 27.5621 105.623 27.5621ZM105.015 17.7693C103.22 17.7693 101.639 19.2291 101.639 21.51C101.639 23.791 103.22 25.2508 105.015 25.2508C106.839 25.2508 108.33 23.8214 108.33 21.51C108.33 19.2291 106.809 17.7693 105.015 17.7693Z" fill="#222222"/>
<path d="M118.548 25.4029C119.856 25.4029 120.768 24.9163 121.681 24.0343L123.232 25.4029C122.137 26.7106 120.616 27.5622 118.487 27.5622C115.142 27.5622 112.526 25.1292 112.526 21.5101C112.526 18.1647 114.868 15.458 118.183 15.458C121.863 15.458 123.749 18.3472 123.749 21.723C123.749 21.9663 123.718 22.1791 123.718 22.4529H115.203C115.537 24.3384 116.845 25.4029 118.548 25.4029ZM121.133 20.6889C120.951 18.9858 119.947 17.6477 118.183 17.6477C116.571 17.6477 115.416 18.8946 115.172 20.6889H121.133Z" fill="#222222"/>
<path d="M131.261 25.4029C132.569 25.4029 133.481 24.9163 134.393 24.0343L135.944 25.4029C134.85 26.7106 133.329 27.5622 131.2 27.5622C127.855 27.5622 125.239 25.1292 125.239 21.5101C125.239 18.1647 127.581 15.458 130.896 15.458C134.576 15.458 136.461 18.3472 136.461 21.723C136.461 21.9663 136.431 22.1791 136.431 22.4529H127.916C128.25 24.3384 129.558 25.4029 131.261 25.4029ZM133.846 20.6889C133.664 18.9858 132.66 17.6477 130.896 17.6477C129.284 17.6477 128.128 18.8946 127.885 20.6889H133.846Z" fill="#222222"/>
<path d="M141.297 27.3188H138.651V15.7012H141.297V18.3167C142.027 16.5832 143.365 15.3971 145.403 15.4883V18.2863H145.251C142.909 18.2863 141.297 19.8069 141.297 22.8786V27.3188Z" fill="#222222"/>
<path d="M30.6555 31.5763C29.3173 31.3026 28.04 30.9984 26.9756 30.7856L25.1812 30.3902L25.3941 28.5654C25.3941 28.4742 25.4245 28.383 25.4245 28.2917C25.4245 27.8964 25.3637 27.5314 25.2116 27.1665L24.7859 26.1933L25.3637 25.2809C25.6982 24.7335 25.8503 24.1252 25.8503 23.4257C25.8503 22.6958 25.6374 22.0571 25.242 21.5097L24.5426 20.5669L24.9987 19.4721C25.1812 19.0463 25.2725 18.5901 25.2725 18.1339C25.2725 17.4953 25.2725 15.5793 22.2616 14.4236C21.8358 14.2715 20.9843 14.0282 19.4028 13.937L16.1487 13.7241L17.6997 10.8957C18.9466 8.64518 19.6461 6.60754 19.6461 5.17815C19.6461 3.87041 19.2204 2.71473 18.2472 2.31936C14.8714 0.859564 12.4688 3.1405 10.7657 5.93846C9.39709 8.21941 7.69398 11.139 6.65995 13.2983C4.43983 17.9819 1.15527 21.3577 1.15527 26.0412C1.15527 30.299 4.01406 33.6443 9.24502 35.4083C15.6621 37.5676 25.242 38.1454 29.4086 38.1454C32.389 38.1454 34.0313 36.9897 34.0313 34.8608C34.0313 32.6407 31.9328 31.85 30.6555 31.5763Z" fill="#FFD338"/>
<path d="M29.3177 29.6907C25.8507 28.9304 22.8703 28.2917 22.8703 28.2917C23.3873 27.9268 23.9347 27.1665 23.9347 26.2237C23.9347 25.1288 23.3569 24.4902 22.9007 24.1556C23.5089 23.6994 24.3301 22.8783 24.3301 21.3881C24.3301 19.7762 23.2352 18.9551 22.6574 18.5597C23.1136 18.1339 23.7522 17.2824 23.7522 16.0963C23.7522 13.9978 22.1404 13.055 20.8326 12.538C19.7682 12.1426 17.761 11.9906 15.997 11.9906C13.1078 11.9906 10.4923 12.2035 9.24543 12.2035C7.75521 12.2035 7.93769 11.4432 8.48511 10.7437C8.81965 10.3483 13.047 4.78278 13.8377 3.77916C14.3852 3.04926 15.0238 2.34977 15.5104 2.62348C16.0274 2.8972 15.8145 4.17452 15.2671 5.5735C14.446 7.76321 13.2903 9.16219 13.0166 9.64879L14.963 10.8349C15.7233 9.89209 18.1867 5.78639 18.1867 3.1405C18.1867 1.9544 17.7305 0.950787 16.8486 0.40336C15.9666 -0.113654 14.8413 -0.0832408 13.8377 0.525011C13.1687 0.920375 12.4996 1.49822 11.9217 2.22812C10.4011 4.17452 7.17737 8.24981 5.99128 9.77044C4.28818 11.9906 5.0789 14.7277 8.698 14.7277C9.97533 14.7277 14.1419 14.4236 15.7537 14.4236C17.6089 14.4236 18.5213 14.5148 19.1599 14.6061C20.3764 14.7885 21.0759 15.336 21.0759 16.0659C21.0759 16.5829 20.8326 16.9478 20.4068 17.252C19.9811 17.5561 19.5857 18.0123 19.5857 18.6509C19.5857 19.4113 20.2852 19.7154 20.7414 20.0195C21.3496 20.4149 21.7146 20.6886 21.7146 21.3272C21.7146 21.9051 21.2888 22.2396 20.8022 22.6046C20.4069 22.9087 19.8898 23.2432 19.8898 23.9427C19.8898 24.5814 20.346 24.8855 20.6502 25.1288C20.9543 25.3721 21.2888 25.6458 21.2888 26.1628C21.2888 26.6799 21.0455 26.9232 20.4373 27.2881C19.9507 27.5618 19.2512 28.0788 19.2512 28.8087C19.2512 29.6299 19.829 29.9948 20.5285 30.1773C22.2012 30.5727 27.1889 31.6371 28.892 32.0325C29.4394 32.1541 29.9868 32.3366 29.9868 32.7928C29.9868 33.249 29.2569 33.4619 28.2229 33.4619C24.6342 33.4619 14.6589 32.732 8.78924 30.6943C4.80519 29.3562 2.61548 26.8928 2.61548 23.9427C2.61548 21.3881 4.31859 19.1071 6.17376 17.7994L4.50106 16.0963C1.82476 17.9514 0 20.9015 0 24.0036C0 27.5922 2.12888 31.2418 7.99851 33.2186C14.2331 35.317 23.6914 35.9557 28.1012 35.9557C31.1121 35.9557 32.5719 34.7088 32.5719 32.8232C32.5415 31.0289 31.0817 30.0557 29.3177 29.6907Z" fill="#222222"/>
</g>
<defs>
<clipPath id="clip0_43_38">
<rect width="146" height="39" fill="white"/>
</clipPath>
</defs>
</svg>
