<svg width="21" height="23" viewBox="0 0 21 23" fill="none" xmlns="http://www.w3.org/2000/svg">
<path d="M18.8898 18.675L14.8398 17.79C15.1548 17.565 15.4998 17.085 15.4998 16.485C15.4998 15.795 15.1398 15.405 14.8548 15.195C15.2298 14.895 15.7548 14.385 15.7548 13.44C15.7548 12.435 15.0648 11.91 14.7048 11.67C14.9898 11.4 15.3948 10.86 15.3948 10.11C15.3948 8.79004 14.3748 8.19004 13.5498 7.86004C12.5564 7.6018 11.5305 7.49061 10.5048 7.53004C8.68981 7.53004 7.0398 7.66504 6.2448 7.66504C5.3148 7.66504 5.4348 7.18504 5.7648 6.73504C5.9898 6.49504 8.64481 2.98504 9.13981 2.35504C9.48481 1.90504 9.88981 1.45504 10.1898 1.62004C10.5198 1.80004 10.3848 2.61004 10.0398 3.48004C9.52981 4.86004 8.79481 5.74504 8.62981 6.04504L9.8598 6.79504C10.3248 6.19504 11.8848 3.61504 11.8848 1.95004C11.8848 1.20004 11.5848 0.570037 11.0448 0.225037C10.4898 -0.0899629 9.76981 -0.0749629 9.13981 0.300037C8.71981 0.555037 8.29981 0.915037 7.93981 1.38004L4.1898 6.13504C3.1398 7.53004 3.6198 9.25504 5.8998 9.25504C6.7098 9.25504 9.33481 9.06004 10.3548 9.06004C11.5248 9.06004 12.0948 9.12004 12.4998 9.18004C13.2498 9.28504 13.6998 9.63004 13.6998 10.08C13.6998 10.425 13.5498 10.65 13.2798 10.83C13.0098 11.025 12.7698 11.325 12.7698 11.73C12.7698 12.195 13.2048 12.39 13.4898 12.585C13.8798 12.84 14.1048 13.005 14.1048 13.41C14.1048 13.77 13.8348 13.98 13.5348 14.205C13.2798 14.4 12.9498 14.61 12.9498 15.06C12.9498 15.45 13.2498 15.66 13.4298 15.81C13.6248 15.96 13.8348 16.125 13.8348 16.455C13.8348 16.785 13.6848 16.935 13.2948 17.16C12.9948 17.34 12.5448 17.655 12.5448 18.12C12.5448 18.63 12.9198 18.87 13.3548 18.975C14.4048 19.23 17.5548 19.905 18.6198 20.145C18.9648 20.22 19.3098 20.34 19.3098 20.625C19.3098 20.925 18.8598 21.045 18.1998 21.045C15.9498 21.045 9.6498 20.595 5.9598 19.305C3.4548 18.465 2.0748 16.905 2.0748 15.06C2.0748 13.44 3.1548 12.015 4.3248 11.19L3.2748 10.11C2.43686 10.6525 1.7409 11.3876 1.24509 12.254C0.749284 13.1203 0.46802 14.0928 0.424805 15.09C0.424805 17.34 1.7748 19.65 5.4648 20.895C9.3948 22.215 15.3498 22.62 18.1248 22.62C20.0298 22.62 20.9448 21.84 20.9448 20.655C20.9298 19.515 19.9998 18.9 18.8898 18.675V18.675Z" fill="#222222"/>
</svg>
