<svg width="54" height="54" viewBox="0 0 54 54" fill="none" xmlns="http://www.w3.org/2000/svg">
<rect width="54" height="54" rx="27" fill="#EEEEEE"/>
<g clip-path="url(#clip0_43_386)">
<path d="M28.386 33.0752L32.472 28.1702H19.125C18.8266 28.1702 18.5405 28.0516 18.3295 27.8407C18.1185 27.6297 18 27.3435 18 27.0452C18 26.7468 18.1185 26.4607 18.3295 26.2497C18.5405 26.0387 18.8266 25.9202 19.125 25.9202H32.4738L28.386 21.0152C28.2872 20.9023 28.212 20.7708 28.1648 20.6284C28.1176 20.486 28.0994 20.3356 28.1112 20.186C28.123 20.0365 28.1646 19.8908 28.2335 19.7576C28.3024 19.6243 28.3973 19.5062 28.5125 19.4102C28.6277 19.3142 28.761 19.2421 28.9045 19.1984C29.048 19.1546 29.1988 19.14 29.348 19.1554C29.4972 19.1707 29.6419 19.2158 29.7734 19.2879C29.905 19.36 30.0208 19.4577 30.114 19.5752L35.739 26.3252C35.7696 26.3612 35.7894 26.4026 35.811 26.4422C35.8274 26.4772 35.8454 26.5114 35.865 26.5448C35.8848 26.5736 35.9046 26.6042 35.919 26.6384C35.9703 26.7667 35.9972 26.9034 35.9982 27.0416V27.0434L36 27.0452V27.0488C36 27.1874 35.9694 27.3224 35.9172 27.452C35.9046 27.488 35.8848 27.5168 35.8668 27.5456L35.838 27.5924L35.8092 27.6464C35.7894 27.6878 35.7696 27.7292 35.739 27.7652L30.114 34.5152C30.0208 34.6327 29.905 34.7304 29.7734 34.8025C29.6419 34.8746 29.4972 34.9196 29.348 34.935C29.1988 34.9504 29.048 34.9357 28.9045 34.892C28.761 34.8482 28.6277 34.7762 28.5125 34.6802C28.3973 34.5841 28.3024 34.466 28.2335 34.3328C28.1646 34.1995 28.123 34.0539 28.1112 33.9043C28.0994 33.7548 28.1176 33.6044 28.1648 33.462C28.212 33.3196 28.2872 33.1881 28.386 33.0752V33.0752Z" fill="black"/>
</g>
<defs>
<clipPath id="clip0_43_386">
<rect width="18" height="18" fill="white" transform="translate(18 18)"/>
</clipPath>
</defs>
</svg>
