<svg width="54" height="54" viewBox="0 0 54 54" fill="none" xmlns="http://www.w3.org/2000/svg">
<rect width="54" height="54" rx="27" fill="#EEEEEE"/>
<path d="M25.614 20.9248L21.528 25.8298H34.875C35.1734 25.8298 35.4595 25.9484 35.6705 26.1593C35.8815 26.3703 36 26.6565 36 26.9548C36 27.2532 35.8815 27.5393 35.6705 27.7503C35.4595 27.9613 35.1734 28.0798 34.875 28.0798H21.5262L25.614 32.9848C25.7128 33.0977 25.788 33.2292 25.8352 33.3716C25.8824 33.514 25.9006 33.6644 25.8888 33.814C25.877 33.9635 25.8354 34.1092 25.7665 34.2424C25.6976 34.3757 25.6027 34.4938 25.4875 34.5898C25.3723 34.6858 25.239 34.7579 25.0955 34.8016C24.952 34.8454 24.8012 34.86 24.652 34.8446C24.5028 34.8293 24.3581 34.7842 24.2266 34.7121C24.095 34.64 23.9792 34.5423 23.886 34.4248L18.261 27.6748C18.2304 27.6388 18.2106 27.5974 18.189 27.5578C18.1726 27.5228 18.1546 27.4886 18.135 27.4552C18.1152 27.4264 18.0954 27.3958 18.081 27.3616C18.0297 27.2333 18.0028 27.0966 18.0018 26.9584V26.9566L18 26.9548V26.9512C18 26.8126 18.0306 26.6776 18.0828 26.548C18.0954 26.512 18.1152 26.4832 18.1332 26.4544L18.162 26.4076L18.1908 26.3536C18.2106 26.3122 18.2304 26.2708 18.261 26.2348L23.886 19.4848C23.9792 19.3673 24.095 19.2696 24.2266 19.1975C24.3581 19.1254 24.5028 19.0804 24.652 19.065C24.8012 19.0496 24.952 19.0643 25.0955 19.108C25.239 19.1518 25.3723 19.2238 25.4875 19.3198C25.6027 19.4159 25.6976 19.534 25.7665 19.6672C25.8354 19.8005 25.877 19.9461 25.8888 20.0957C25.9006 20.2452 25.8824 20.3956 25.8352 20.538C25.788 20.6804 25.7128 20.8119 25.614 20.9248V20.9248Z" fill="black"/>
</svg>
