<svg width="32" height="32" viewBox="0 0 32 32" fill="none" xmlns="http://www.w3.org/2000/svg">
<g id="Frame">
<path id="Vector" fill-rule="evenodd" clip-rule="evenodd" d="M26.0203 12.7201C26.0203 19.8401 20.4203 27.3201 10.7603 27.3201C8.527 27.3207 6.32352 26.8074 4.3203 25.8201C3.8003 25.5801 3.9403 24.8201 4.5203 24.7001C7.0403 24.3001 9.3203 23.3001 10.4603 21.6401C3.7803 17.7601 3.9003 11.0001 4.2603 8.24014C4.3403 7.74014 4.9403 7.54014 5.2603 7.90014C7.7803 10.8201 10.8603 12.9201 15.3203 12.6201C14.9203 10.7401 15.4803 8.78014 16.8403 7.46014C17.3378 6.97445 17.9282 6.59429 18.5763 6.34249C19.2243 6.09069 19.9166 5.97245 20.6114 5.99487C21.3063 6.01729 21.9895 6.17989 22.62 6.47293C23.2504 6.76597 23.8152 7.18339 24.2803 7.70014C24.8003 8.30014 25.9803 8.74014 27.1603 8.20014C27.6203 8.00014 28.1003 8.40014 27.9803 8.88014C27.5403 10.7201 26.6603 11.8401 26.2403 12.3801C26.1003 12.5601 26.0203 12.6601 26.0203 12.7201Z" fill="black"/>
</g>
</svg>
