<svg width="266" height="31" viewBox="0 0 266 31" fill="none" xmlns="http://www.w3.org/2000/svg">
<g clip-path="url(#clip0_43_449)">
<path fill-rule="evenodd" clip-rule="evenodd" d="M252.67 0.96243C252.67 1.34425 252.511 1.64425 252.313 1.64425C252.114 1.64425 251.945 1.41243 251.945 1.09879C251.945 0.757884 250.377 0.594248 247.578 0.648793C244.65 0.703339 243.211 0.921521 243.211 1.33061C243.211 1.65788 243.052 1.57607 242.874 1.15334C242.635 0.621521 242.397 0.553339 242.06 0.921521C241.792 1.20788 240.432 1.52152 239.023 1.60334C237.633 1.69879 236.402 1.91698 236.293 2.10788C236.194 2.29879 234.725 2.51698 233.018 2.59879C231.321 2.66698 229.683 2.87152 229.385 3.03516C229.087 3.19879 227.936 3.41698 226.834 3.51243C225.743 3.60788 224.343 3.79879 223.738 3.92152C222.03 4.30334 219.192 4.82152 217.028 5.14879C215.936 5.31243 214.924 5.55788 214.785 5.69425C214.636 5.81698 213.594 6.03516 212.462 6.17152C211.64 6.22687 210.827 6.42387 210.041 6.75788C209.842 6.94879 208.909 7.19425 207.976 7.30334C207.033 7.4397 205.862 7.67152 205.366 7.84879C204.869 8.02607 203.877 8.25788 203.182 8.35334C199.053 8.96698 197.842 9.19879 197.356 9.48516C197.058 9.66243 196.681 9.86697 196.532 9.92152C196.383 9.9897 196.224 10.0988 196.175 10.167C196.125 10.2352 195.421 10.3442 194.617 10.4124C193.823 10.4942 192.175 10.7397 190.974 10.9715C189.783 11.2033 188.145 11.4488 187.341 11.517C184.731 11.7215 181.188 12.3624 180.83 12.7033C180.632 12.8806 177.724 12.9761 174.359 12.9079C169.615 12.8261 168.235 12.9624 168.235 13.4806C168.235 14.0261 168.165 14.0261 167.937 13.4806C167.639 12.7988 162.577 12.4033 162.161 13.0306C162.061 13.167 161.595 13.0852 161.118 12.8124C160.563 12.5124 160.175 12.5397 160.027 12.9079C159.858 13.2897 159.679 13.2488 159.491 12.7852C159.262 12.267 159.074 12.2397 158.687 12.717C158.349 13.1261 158.061 13.167 157.813 12.7988C157.377 12.1715 156.195 11.8852 151.312 11.2442C148.997 10.9138 146.693 10.4589 144.404 9.88061C142.598 9.40334 140.632 8.92607 140.037 8.80334C138.264 8.47961 136.502 8.04736 134.757 7.50788C133.655 7.18061 131.779 6.82607 130.568 6.71698C129.638 6.67081 128.714 6.49722 127.809 6.19879C127.481 6.00788 127.074 5.91243 126.896 5.98061C126.717 6.03516 126.161 5.9397 125.655 5.74879C125.159 5.55788 124.007 5.28516 123.114 5.14879C122.211 5.01243 119.998 4.63061 118.201 4.33061L113.645 3.52607C113.217 3.47825 112.792 3.38248 112.375 3.2397C112.375 2.83061 110.122 3.06243 109.923 3.48516C109.745 3.86698 109.655 3.8397 109.645 3.3897C109.645 2.9397 108.851 2.73516 107.005 2.73516C105.556 2.73516 103.452 2.54425 102.34 2.29879C100.107 1.82152 94.9559 1.91698 94.3703 2.43516C94.1618 2.62607 93.9931 2.53061 93.9931 2.20334C93.9931 1.84879 93.6259 1.78061 93.0006 2.01243C92.4447 2.21698 91.6606 2.32607 91.2636 2.25788C90.2314 2.06698 90.4994 2.06698 82.8965 2.42152C75.7304 2.74879 75.254 2.81698 72.5245 3.67607C71.6213 3.96243 70.6387 4.22152 70.3409 4.22152C67.5618 4.35788 62.5793 5.25788 56.8722 6.67607C56.3759 6.81243 54.8375 7.16698 53.448 7.49425C52.0683 7.82152 50.6391 8.31243 50.2718 8.61243C49.8947 8.91243 49.587 8.95334 49.587 8.72152C49.587 8.4897 49.4282 8.66698 49.2297 9.10334C48.9716 9.6897 48.8724 9.71698 48.8724 9.19879C48.8724 8.51698 47.4133 8.4897 47.0461 9.18516C46.9468 9.36243 45.9543 9.66243 44.8625 9.82607C42.7385 10.1397 35.9495 12.0761 35.483 12.4852C35.3342 12.6215 34.3019 12.8806 33.2002 13.0579C32.0886 13.2352 30.699 13.5761 30.1035 13.8215C29.508 14.067 28.8231 14.1624 28.575 14.0397C28.3268 13.9033 28.1184 14.0806 28.1184 14.4079C28.1184 14.7488 27.9497 14.8715 27.7412 14.6806C27.5328 14.4897 27.1656 14.5715 26.9174 14.8579C26.6792 15.1306 25.8256 15.5124 25.0316 15.6761C24.2277 15.8261 22.9969 16.1806 22.3021 16.4397L20.7538 17.0124L19.3642 17.4352C18.7389 17.6261 18.1533 18.0761 18.0541 18.4442C17.9548 18.8533 17.4983 19.0306 16.9921 18.8942C16.1483 18.8839 15.3172 19.1752 14.5802 19.7397C13.7465 20.3261 12.7242 20.817 12.3073 20.8306C11.3148 20.8306 10.2924 21.8533 10.9177 22.2215C11.1758 22.3715 11.3743 22.7261 11.3743 22.9988C11.3743 23.3124 11.1361 23.3261 10.7391 23.0261C9.94505 22.4397 8.27759 22.7533 7.24535 23.7079C6.81856 24.0897 5.98483 24.567 5.39923 24.7715C4.81363 24.9761 3.29505 25.8488 2.03453 26.7079C-0.0795762 28.1533 -0.228457 28.3579 0.188409 29.3397C0.436543 29.9124 0.754155 30.3897 0.89311 30.3897C1.44893 30.3897 3.00721 29.1352 3.00721 28.6715C3.00721 28.4124 3.17595 28.3579 3.38438 28.5352C3.59281 28.7261 4.00968 28.5897 4.29751 28.2488C4.59527 27.8942 4.82356 27.7442 4.82356 27.9215C4.82356 28.0988 5.68707 27.7442 6.73915 27.1442C8.32688 26.2655 9.93571 25.4605 11.5629 24.7306L16.1087 22.6852C17.002 22.2761 18.4908 21.7852 19.3841 21.5942C20.2774 21.3897 21.6768 20.9124 22.4808 20.5442C23.2748 20.1624 24.5353 19.7124 25.2798 19.5215C26.3815 19.2488 26.6495 18.9215 26.7686 17.7352L26.9174 16.2897L26.977 17.6806L27.0266 19.0715L29.6668 18.3488L35.225 16.7942C36.813 16.3442 38.6194 15.8806 39.2249 15.7579C40.7931 15.4442 43.7112 14.5852 45.4481 13.9442C46.9568 13.3852 48.8823 12.8942 50.8674 12.5806C51.4629 12.4852 53.0212 12.117 54.3214 11.7624C55.6216 11.4079 56.9318 11.1215 57.2394 11.1215C57.5372 11.1215 59.6612 10.6988 61.9639 10.167C65.8447 9.25334 66.9266 9.04879 71.4327 8.31243L74.5195 7.79425C76.3557 7.49425 83.3233 6.88061 86.033 6.78516C87.5019 6.73061 88.028 6.51243 87.8989 6.04879C87.7997 5.68061 87.9089 5.38061 88.1371 5.38061C88.3555 5.38061 88.5341 5.58516 88.5341 5.83061C88.5341 6.30788 88.5937 6.32152 91.1743 6.78516C92.405 7.00334 92.9013 6.89425 92.9013 6.43061C92.9013 5.99425 93.0502 5.95334 93.3579 6.29425C93.606 6.56698 96.7623 6.8397 100.365 6.90788C107.849 7.04425 109.318 7.15334 109.844 7.63061C110.052 7.82152 110.707 7.90334 111.293 7.79425C111.879 7.71243 112.732 7.83516 113.179 8.09425C113.645 8.3397 114.797 8.66698 115.74 8.80334C118.41 9.21243 125.625 10.5761 132.573 11.9806C133.069 12.0761 134.459 12.417 135.67 12.7442C140.384 13.9852 142.578 14.2852 143.034 13.767C143.342 13.3988 143.491 13.4261 143.491 13.8352C143.491 14.1624 143.908 14.4215 144.404 14.4215C144.9 14.4215 145.655 14.7215 146.052 15.1033C146.647 15.6352 146.846 15.6215 147.094 15.0352C147.273 14.6124 147.461 14.5306 147.54 14.8579C147.62 15.1579 148.414 15.5397 149.317 15.717L153.684 16.5761C163.61 18.5261 183.262 18.2397 192.264 16.0306C193.356 15.7579 195.242 15.3897 196.443 15.2124C197.644 15.0352 199.619 14.5579 200.81 14.1624C202.669 13.6091 204.543 13.1587 206.428 12.8124C209.232 12.3052 212.031 11.746 214.825 11.1352C216.522 10.7942 218.001 10.3715 218.1 10.2079C218.199 10.0442 219.092 9.88061 220.105 9.8397C221.097 9.79879 223.886 9.34879 226.288 8.83061C228.69 8.31243 230.943 7.87607 231.291 7.84879C231.638 7.83516 231.926 7.52152 231.926 7.16698C231.933 6.9669 231.973 6.77154 232.041 6.59477C232.11 6.41801 232.206 6.26419 232.323 6.14425C232.601 5.89879 232.66 6.14425 232.502 6.8397C232.283 7.83516 232.373 7.87607 233.881 7.46698C234.765 7.23516 237.186 6.89425 239.261 6.73061C241.335 6.56698 244.015 6.29425 245.216 6.14425C249.722 5.54425 253.871 5.35334 260.461 5.43516L263.34 5.47607L264.7 3.15788C265.454 1.90334 266.04 0.81243 265.99 0.744248C265.781 0.403339 260.63 0.294248 260.481 0.635157C260.382 0.866975 259.906 0.948793 259.409 0.81243C258.913 0.676066 257.206 0.51243 255.598 0.430612C253.395 0.307884 252.67 0.444248 252.67 0.976066V0.96243ZM142.806 12.9624C142.449 13.4942 142.409 13.4397 142.608 12.6761C142.737 12.1442 142.945 11.8579 143.054 12.0215C143.173 12.1852 143.054 12.6079 142.806 12.9761V12.9624Z" fill="#FFD338"/>
</g>
<defs>
<clipPath id="clip0_43_449">
<rect width="266" height="30" fill="white" transform="translate(0 0.390625)"/>
</clipPath>
</defs>
</svg>
